<?xml version="1.0"?><svg width="707" height="291" xmlns="http://www.w3.org/2000/svg">
 <defs>
  <linearGradient id="XMLID_4_" y2="0.5" x2="1.00002" y1="0.5" x1="0.000011">
   <stop stop-color="#8d5c34" id="stop18" offset="0.0048"/>
   <stop stop-color="#93633b" id="stop20" offset="0.1429"/>
   <stop stop-color="#e8d0a9" id="stop22" offset="0.2952"/>
   <stop stop-color="#e3cba4" id="stop24" offset="0.6381"/>
   <stop stop-color="#93633a" id="stop26" offset="0.9333"/>
   <stop stop-color="#8d5c34" id="stop28" offset="1"/>
  </linearGradient>
  <linearGradient id="XMLID_5_" y2="0.499993" x2="1.000003" y1="0.499993" x1="0.000005">
   <stop stop-color="#8d5c34" id="stop35" offset="0"/>
   <stop stop-color="#d1b38b" id="stop37" offset="0.0333"/>
   <stop stop-color="#e3cba4" id="stop39" offset="0.9143"/>
   <stop stop-color="#8d5c34" id="stop41" offset="1"/>
  </linearGradient>
  <linearGradient id="XMLID_6_" y2="0.5" x2="1.000008" y1="0.5" x1="0.000012">
   <stop stop-color="#8d5c34" id="stop46" offset="0.1286"/>
   <stop stop-color="#e8d0a9" id="stop48" offset="0.2905"/>
   <stop stop-color="#e3cba4" id="stop50" offset="0.5952"/>
   <stop stop-color="#8d5c34" id="stop52" offset="1"/>
  </linearGradient>
  <filter id="filter3211">
   <feGaussianBlur stdDeviation="2.342977" id="feGaussianBlur3213"/>
  </filter>
  <linearGradient id="svg_1" y2="0.5" x2="1" y1="0.5" x1="0.000012">
   <stop stop-color="#999999" stop-opacity="0.996094" id="stop46" offset="0.1286"/>
   <stop stop-color="#ffffff" stop-opacity="0.996094" id="stop48" offset="0.2905"/>
   <stop stop-color="#ffffff" stop-opacity="0.996094" id="stop50" offset="0.5952"/>
   <stop stop-color="#7f7f7f" stop-opacity="0.996094" id="stop52" offset="1"/>
  </linearGradient>
  <linearGradient id="svg_2" y2="0.5" x2="1" y1="0.5" x1="0.000011">
   <stop stop-color="#7f7f7f" stop-opacity="0.996094" id="stop18" offset="0.0048"/>
   <stop stop-color="#7f7f7f" stop-opacity="0.996094" id="stop20" offset="0.1429"/>
   <stop stop-color="#ffffff" stop-opacity="0.996094" id="stop22" offset="0.2952"/>
   <stop offset="0.523438" stop-opacity="0.996094" stop-color="#ffffff"/>
   <stop stop-color="#ffffff" stop-opacity="0.996094" id="stop24" offset="0.6381"/>
   <stop stop-color="#7f7f7f" stop-opacity="0.996094" id="stop26" offset="0.9333"/>
   <stop stop-color="#666666" stop-opacity="0.996094" id="stop28" offset="1"/>
  </linearGradient>
 </defs>
 <g>
  <title>Layer 1</title>
  <g externalResourcesRequired="false" id="g3215">
   <path fill="#4d4d4d" fill-rule="evenodd" stroke="#000000" stroke-width="0.036" stroke-miterlimit="10" filter="url(#filter3211)" id="path2218" d="m674.759827,10.95493c-2.268005,-0.359 -4.752014,-0.359 -7.632996,0c-2.916016,0.323999 -6.947021,1.188 -10.474976,2.195c0,1.225 0,2.484 0,3.744l0,0l-19.477051,-0.144001l-11.015991,-0.646999l-11.015991,0.323999l-10.117004,0.215l0,0c0,0 1.117004,9.504 1.007996,12.564001c-0.323975,11.699999 -3.526978,-1.764 -7.703003,10.187998c-2.159973,6.192001 -1.47699,8.785 -1.47699,8.785c0,0 -5.328003,-2.341 -7.09198,-6.768997c-9.072021,-22.824001 -10.439026,10.799999 -19.007996,1.764c-2.231995,-2.34 -1.656006,-3.888 -1.835999,-8.100002c-0.179993,-4.211998 1.224976,-4.103998 1.079956,-8.747999c-0.106995,-4.643999 -1.583984,-9.792 -1.583984,-9.792c0,0 -15.625,0.719999 -33.877014,0.576c-18.251953,-0.18 -21.454956,-0.323999 -39.491974,-0.684c-18.035004,-0.361 -32.218994,-0.217001 -32.218994,-0.217001c-36.071991,-0.071999 -18.64801,-0.106998 -22.104004,0c-3.528992,0.072001 -8.281006,0.540001 -11.557007,0.792002c-3.23999,0.216 -5.76001,0.719999 -7.847992,0.646999c-0.289001,0.504 -0.289001,1.656 0,3.528999c0.251984,1.871 1.72699,5.399 1.583984,7.596001c-0.179993,2.16 -1.007996,3.852001 -2.556976,5.256001c0.68399,-1.98 1.007996,-3.6 0.972992,-4.969c-0.071991,-1.403002 -0.828003,-1.332001 -1.296997,-3.203001c-0.432007,-1.944 -0.828003,-4.608 -1.26001,-8.209c-3.096008,-0.035 -6.553009,-0.252001 -10.511993,-0.575001c-3.924011,-0.359999 -7.30899,-1.619999 -13.031006,-1.476c-5.725006,0.18 -15.300995,1.979 -20.988007,2.34c-5.651978,0.359001 -9.828003,0.252001 -12.743988,-0.289c-3.420013,-0.828001 -7.596008,-1.295 -12.709015,-1.439001c-5.146973,-0.144999 -12.599976,0.288 -17.819,0.576c-5.18399,0.288 -7.164001,0.828001 -13.031982,1.152c-5.903992,0.359001 -15.804016,0.936001 -21.959991,0.899l0,0c-6.120026,-0.070999 -9.936005,-1.296 -14.652008,-1.188c-4.679993,0.108999 -9.071991,0.684999 -13.356018,1.764999c-0.251984,0.792 -0.68399,1.728001 -1.259979,2.916c-0.576019,1.188 -1.90802,1.944 -2.231995,4.104c-0.288025,2.16 0.539978,7.199001 0.323975,8.748001c-0.216003,1.511997 -0.720001,1.618999 -1.583984,0.286999c0.503998,-2.591999 0.432007,-4.896 -0.324005,-6.983999c-0.756012,-2.123001 -3.167999,-3.959002 -4.139984,-5.58c-0.936005,-1.619001 0.287994,-3.096001 -1.584015,-4.067001c-1.871994,-1.007999 -3.960007,-1.547998 -9.539993,-1.764c-5.652008,-0.181 -17.460007,0.396 -23.868011,0.575001c-6.371994,0.216999 -8.603989,0.181 -14.220001,0.576c-5.615997,0.396 9.540009,1.656 -19.439987,1.764999c-7.812012,0.108 -15.624008,0.252001 -23.436005,0.396c-8.568008,-0.216 -17.136002,-0.468 -25.703995,-0.719999c-5.328003,0.108 -10.656006,0.216 -16.020004,0.360001c-1.872002,1.331999 -3.744003,2.698999 -5.616005,4.067999c0,0 0.071999,-0.612999 -0.108002,0.646999c-0.215996,1.296001 -0.719994,4.5 -0.719994,4.5c-1.332001,1.584002 -2.664001,3.167999 -3.996002,4.788002c0,0 0.612,-1.584 0,-3.672001c-0.612,-2.125 -1.907997,-2.052999 -2.412003,-4.789c-0.503998,-2.771 0.396004,-6.264 0.396004,-6.264c-8.424004,-0.107 -16.848,-0.252001 -25.271996,-0.396002c-6.263992,-0.108 -12.564003,-0.216 -18.864006,-0.359999c-29.34,0.108 41.940002,1.152 -32.400002,0.288c0.108002,-1.728001 0.216,-3.491 0.324001,-5.256001c-2.987999,-2.304 -6.228001,-3.384 -9.864,-3.239l0,0c-3.636,0.18 -7.487999,1.512 -11.771999,4.104c-1.473001,84.026003 -2.949,168.049997 -4.425,252.109995c0.144,0.216003 1.296,0.503998 3.492,0.899017c2.196,0.395996 5.328001,0.863983 9.540001,1.440002c0.612,0.755981 1.26,1.547974 1.907999,2.339996c3.096001,0.108002 5.58,-0.072021 7.632002,-0.576019c2.051998,-0.503998 3.491997,-1.259979 4.463997,-2.339996c-0.179996,-2.303986 -0.359997,-4.643982 -0.576,-6.983002c8.136002,0.106995 16.308002,0.216003 24.480003,0.359009c12.563995,0.359985 25.127998,0.720001 37.692001,1.115997c10.439995,-0.216003 20.879997,-0.467987 31.319992,-0.720001c0,-1.47699 0,-2.951996 0,-4.428986c0.936005,-3.563019 1.872009,-7.128006 2.807999,-10.69101c0.792007,2.087997 1.584,4.175995 2.376007,6.263992c-0.108002,2.699997 -0.251999,5.400009 -0.395996,8.100998c34.164001,-0.181 58.319992,-0.071991 73.835999,0.359009c15.335999,0.432983 11.772003,2.195984 17.927994,2.231995c6.156006,0.036011 13.572006,-1.691986 18.755997,-2.016998c5.184006,-0.359009 7.667999,0.108002 12.095993,0c4.428009,-0.179993 9.144012,-0.432007 14.328003,-0.898987c0,-2.196014 0.216003,-4.032013 0.612,-5.544006c0.432007,-1.513 1.080017,-2.664001 1.90802,-3.492004c-0.612,1.944 -0.720001,3.779999 -0.324005,5.544006c0.467987,1.764008 1.403992,3.384003 2.880005,4.967987c5.975983,0.612 11.627991,1.007996 17.171997,1.152008c5.579987,0.144012 10.764008,0.071991 15.911987,-0.287994c-0.64798,-1.656006 -0.863983,-3.20401 -0.64798,-4.680023c0.251984,-1.47699 1.547974,-2.123993 1.90799,-4.067978l0,0c0.395996,-1.980011 0.503998,-4.464005 0.324005,-7.596008c0,0.611008 0.108002,1.475998 0.324005,2.628006c0.215973,1.115997 0.755981,2.664001 0.971985,4.067001c0.179993,1.439987 -0.324005,2.951981 0.287994,4.39299c0.64801,1.438995 0.792023,3.059998 3.528015,4.104004c2.735992,1.007996 7.992004,1.835999 12.707977,2.016998c4.716003,0.216003 12.16803,0.216003 15.264008,-0.863983c3.096008,-1.080017 1.440002,-5.472015 3.20401,-5.544006c1.764008,-0.036011 3.778992,4.391998 7.30899,5.255981c3.527008,0.828003 8.855011,-0.251984 13.679993,-0.287994c4.825012,-0.036011 9.719025,-0.036011 14.939026,0c0.935974,-1.223999 1.763977,-2.59201 2.556976,-4.104004c0.791016,-1.513 1.223022,-5.003998 2.230011,-4.968994c1.01001,0.072006 3.60199,4.067993 3.81601,5.256989c0.21698,1.188019 -3.059021,0.792023 -2.555023,1.764008c0.539001,0.972015 1.332001,3.600006 5.723022,4.104004c4.464996,0.468994 11.231995,0.108002 20.700989,-1.187988c0.791016,-4.104004 1.942993,-6.119995 3.492004,-6.119995c1.546997,0 3.167999,4.967987 5.722992,6.119995c2.484009,1.115997 -1.079987,1.151001 39.277008,1.367981l0,0l36.106995,-0.720978l40.896027,-0.359009l0,0c0,0 -0.686035,-3.779999 -0.395996,-6.265015c0.323975,-2.482986 -1.477051,-5.362991 -0.395996,-5.902985c1.116943,-0.540009 3.92395,4.895996 6.407959,3.671997c2.52002,-1.188004 4.824036,-6.624008 4.824036,-6.624008c0,0 2.735962,-2.375992 4.031006,-1.115997c1.296997,1.296005 1.583984,3.313004 1.97998,6.660004c0.432007,3.311996 -1.403992,4.031998 -0.395996,6.624008c1.007996,2.556 4.427979,3.671997 4.427979,3.671997l0,0l40.5,1.475983l16.453003,-0.358978l0,0c41.039001,0.251984 48.526978,-0.64801 48.526978,-0.64801c0,0 2.305054,2.845001 5.400024,3.20401c3.132996,0.324005 7.380981,-0.036011 13.031006,-1.151001c-1.04303,-83.160004 -2.088013,-166.319008 -3.16803,-249.517008c-1.72699,-0.863001 -3.167969,-1.547001 -4.462952,-2.051001c-1.26001,-0.469 -2.304993,-0.756 -3.16803,-0.865c-0.213989,-1.261 -0.429016,-2.521 -0.645996,-3.78l0,0zm7.02002,7.270999c-3.23999,0.648001 -6.335999,0.828001 -9.539001,0.612001c-3.23999,-0.252001 -7.309021,-1.224001 -9.575989,-2.052c-2.232056,-0.828001 -3.457031,-1.801001 -3.81604,-2.916c0.179993,7.416 0.684021,21.096001 1.619019,41.759998c0.900024,20.771004 2.304993,46.368004 3.815979,81.503998c1.47699,35.279007 3.16803,77.184006 5.075989,127.978989c2.05304,1.116028 4.320007,1.692017 6.984009,1.729004c2.699036,0.071014 5.61499,-0.395996 8.92804,-1.440002c-1.152039,-82.367981 -2.304993,-164.771988 -3.492004,-247.175987l0,0zm-14.364014,245.304008c-113.903992,-0.576019 -73.439026,0.755981 -90.684021,0c0,0 -9.323975,0.216003 -13.247986,-1.080017c-3.888977,-1.29599 -1.512024,-0.647003 -2.411987,-4.066986c-0.900024,-3.419998 -0.072021,-6.084 -1.189026,-9.576004c-1.11499,-3.492004 -3.203003,-4.427994 -3.203003,-4.427994c0,0 -4.932007,1.475998 -7.235962,3.707993c-2.30304,2.195007 -2.015991,5.147003 -2.015991,5.147003c0,0 -4.680054,-5.436005 -6.805054,-4.78801c-2.087952,0.64801 -1.11499,3.960007 -1.618958,7.380005c-0.468994,3.38501 -0.395996,6.265015 -0.395996,6.265015c-17.244019,-0.756012 -46.90802,0 -46.90802,0c-12.707001,0.215973 -25.415985,0.467987 -38.122986,0.720001c-39.996002,-0.180023 -22.896027,1.079987 -25.740021,-0.036011c-2.880981,-1.152008 -5.110992,-5.687988 -6.983978,-6.731018c-1.871002,-1.008987 -3.02301,-0.575989 -4.141022,0.575012c-1.11499,1.187988 -1.942993,3.312988 -2.554993,6.444c-4.536987,0.395996 -8.389008,0.575989 -11.770996,0.575989c-3.350006,0 -6.696991,-0.03598 -8.244019,-0.575989c-1.548981,-0.540009 -1.079987,-1.90799 -0.972992,-2.627991c0.106995,-0.720001 1.800995,-0.756012 1.584015,-1.764008c-0.21701,-1.009003 -1.729004,-3.240005 -2.843994,-4.356003c-1.152008,-1.151993 -2.736023,-2.735992 -3.81601,-2.339996c-1.080017,0.395996 -1.764008,3.022995 -2.557007,4.643997c-0.828003,1.619995 -1.546997,3.276001 -2.230011,4.968994c-6.083984,-0.181 -11.196991,-0.287994 -15.589996,-0.287994c-4.390991,0 -7.811005,0.828003 -10.511993,0.287994c-2.626984,-0.539978 -3.778992,-2.411987 -5.39801,-3.492004c-1.583984,-1.079987 -2.987976,-2.80899 -4.140991,-2.915985l0,0c-1.115997,-0.108002 -1.90799,1.26001 -2.519989,2.339996c-0.64801,1.080017 1.11499,3.20401 -1.296997,4.067993c-2.412018,0.899017 -8.891998,1.332001 -13.032013,1.188019c-4.139984,-0.180023 -8.820007,-1.115997 -11.519989,-2.052002c-2.700012,-0.937012 -3.563995,-1.368011 -4.46402,-3.492004c-0.899994,-2.160004 -0.215973,-6.984009 -0.971985,-9.360001c-0.720001,-2.339996 -1.872009,-3.888 -3.492004,-4.680008c0.540009,3.061005 0.64801,5.652008 0.324005,7.884003c-0.324005,2.268997 -1.619995,3.744003 -2.231995,5.544006c-0.576019,1.835999 -1.007996,3.563995 -1.26001,5.291992c-0.64801,0.036011 -3.276001,0.036011 -7.955994,0c-4.716003,-0.070984 -11.268005,-0.143982 -20.052002,-0.322998c-1.440002,-1.513 -2.484009,-3.23999 -3.167999,-5.256989c-0.68399,-2.016006 -1.007996,-4.212006 -0.972015,-6.695007c-1.332001,1.080002 -2.375977,2.412003 -3.167999,4.067001c-0.791992,1.692001 -1.332001,3.600998 -1.583984,5.867996c-12.024017,-0.071991 -21.600006,0.108002 -29.268005,0.575989c-7.632004,0.432007 -9.179993,1.980011 -14.796005,1.944c-5.580002,-0.071991 6.048004,-1.548004 -25.271988,-2.052979c-7.164001,-0.287018 -14.328003,-0.575012 -21.492004,-0.899017c-9.468002,0 -18.972,0 -28.475998,0c-4.284012,-0.108002 -8.568008,-0.251984 -12.852005,-0.395996c-0.503998,-2.556 -1.044006,-5.147003 -1.584,-7.738998c-1.475998,-2.304993 -2.951996,-4.645004 -4.427994,-6.983994c0,0 -2.088013,4.5 -3.20401,8.099991c-1.115997,3.600998 -1.187996,7.021011 -1.187996,7.021011c-7.487999,0.467987 -14.975998,0.971985 -22.463997,1.475983c-31.788002,-0.503998 14.652,-1.438995 -68.364002,-1.332001l0,0c-0.396,-79.559982 -0.827999,-159.118988 -1.260002,-238.71599c15.552002,0.433001 31.140003,0.865002 46.728001,1.297001c9.360001,-0.217001 18.720001,-0.469 28.115997,-0.721001c0,0 -1.115997,3.385 -0.827995,5.904001c0.323997,2.483999 1.512001,1.26 2.015999,4.032c0.503998,2.772001 -0.900002,3.960001 0,7.020998c0.900002,3.023003 3.599998,5.147003 3.599998,5.147003c0,0 -1.584,-4.608002 -0.395996,-7.380001c1.223999,-2.771 3.599998,-1.116001 5.219994,-3.672001c1.620003,-2.591999 -0.792,-4.140999 1.188004,-6.625c2.015999,-2.483 6.840004,-3.310999 6.840004,-3.310999c10.835999,0 21.671997,0 32.507996,0c10.511993,0.107 19.871994,-0.037001 28.511993,-0.505001c8.67601,-0.504 16.812012,-1.835999 22.896011,-2.34c6.084,-0.504 7.019989,-0.504 13.283997,-0.575998c6.335999,-0.108002 19.080002,-0.396002 24.192001,0c5.076004,0.396 4.824005,1.476 6.048004,2.341c1.223999,0.827 0.360001,0.935999 1.259979,2.626999c0.936005,1.656 3.348022,4.824001 4.140015,7.309c0.791992,2.447001 -0.144012,5.831999 0.64801,7.271002c0.828003,1.439999 3.419983,2.16 4.139984,1.188c0.68399,-1.009003 -0.216003,-4.572002 0,-7.021c0.216003,-2.447001 0.468018,-5.615002 1.26001,-7.596001c0.791992,-1.943001 1.944,-3.275 3.492004,-4.104c4.751984,-0.864 8.819977,-1.332001 12.419983,-1.440001c3.563995,-0.108 3.492004,0.756001 8.891998,0.864c5.507996,0.107 15.696014,0.143999 23.544006,-0.288c7.884003,-0.433001 17.424011,-2.052 23.220001,-2.341l0,0c5.76001,-0.287001 6.515991,0.145 11.160004,0.576c4.644989,0.469 10.980011,1.835999 16.52301,2.052999c5.579987,0.216 11.196991,-0.323999 16.560974,-0.864c5.328003,-0.539999 11.447021,-2.230999 15.264008,-2.34c3.779022,-0.108 4.175995,1.26 7.309021,1.764c3.167999,0.468 6.911987,0.864 11.446991,1.152c1.656006,3.132 2.59198,6.120001 2.880981,9.070999c0.252014,2.916 -0.144989,5.725 -1.296997,8.461c2.953003,-2.881001 4.932007,-5.185001 6.049011,-7.021c1.11499,-1.799999 0.899994,-1.979 0.64801,-3.780001c-0.252014,-1.835999 -1.01001,-4.139999 -2.232025,-7.019999c0.971008,-0.504 3.492004,-0.864 7.631012,-1.152c4.140991,-0.323999 -3.527008,-0.9 34.164001,-0.9l0,0l27.071991,-0.107l39.996002,0.792l18.684021,-0.323l16.88501,-0.252001l0,0c0,0 1.042969,5.075001 1.007996,10.151001c-0.072021,5.040001 -1.69104,5.651001 -1.225037,10.116001c0.434021,4.427998 0.252014,5.614998 3.061035,7.632c12.778992,9.070999 8.278992,-24.624001 19.763977,-2.124001c2.700989,5.292 8.676025,9.106998 8.676025,9.106998c0,0 -0.718994,-4.427998 1.224976,-11.122997c3.348022,-11.340002 7.848022,-1.008003 7.380981,-12.205002c-0.144958,-2.987 -1.151978,-11.195 -1.151978,-11.195c0,0 5.687988,-0.288 18.611023,-0.792c12.92395,-0.468 31.968994,1.223999 31.968994,1.223999c3.559998,81.646999 7.161987,163.294003 10.760986,244.978008l0,0zm6.083984,-251.136007c0.395996,1.259999 0.828003,2.521 1.26001,3.816c1.47699,0.358999 2.950989,0.756001 4.465027,1.152c-3.420044,0.179998 -6.55304,0 -9.541016,-0.576c-2.988037,-0.611 -5.687988,-1.549001 -8.278992,-2.916c2.664001,-0.936 4.96698,-1.512 6.984009,-1.764c2.050964,-0.251 3.70697,-0.144 5.110962,0.288l0,0zm-661.787987,253.584005c1.764,-0.828003 3.96,-1.296021 6.66,-1.440002c2.736,-0.179993 6.66,0.071991 9.576,0.575989c2.879999,0.468994 5.363998,1.26001 7.632,2.339996c-1.296001,0.900024 -2.664001,1.513 -4.139999,1.729004c-1.512001,0.252014 -3.060001,0.144012 -4.788,-0.287994c-1.044001,-0.68399 -2.088001,-1.368011 -3.168001,-2.052002c-3.924,-0.289001 -7.848,-0.576996 -11.771999,-0.86499l0,0zm23.868,-0.864014c-0.431999,-24.011993 -0.756001,-56.159988 -0.972,-98.171997c-0.216,-42.154999 -0.324001,-92.014992 -0.324001,-152.207995c-0.756001,-1.907 -2.627998,-2.771 -5.723999,-2.627c-3.095999,0.144 -7.271999,1.295 -12.708,3.492001c-1.367999,82.654999 -2.735999,165.346992 -4.139999,248.039009c4.176,-0.937012 7.812,-1.404022 11.124001,-1.440002c3.311998,-0.071014 6.444,0.64798 8.604,1.152008c2.124001,0.503998 3.492001,1.079987 4.139999,1.763977l0,0z"/>
   <g id="g11">
    <path fill-rule="evenodd" id="path13" d="m672.578003,8.643c-2.268005,-0.358999 -4.752014,-0.358999 -7.632996,0c-2.916016,0.324 -6.947021,1.188001 -10.475037,2.195001c0,1.224999 0,2.484 0,3.743999l0,0l-19.47699,-0.144l-11.015991,-0.646999l-11.015991,0.323999l-10.117004,0.215l0,0c0,0 1.117004,9.504 1.007996,12.564001c-0.323975,11.700001 -3.526978,-1.764002 -7.703003,10.188c-2.159973,6.191998 -1.47699,8.785 -1.47699,8.785c0,0 -5.328003,-2.341 -7.09198,-6.769001c-9.072021,-22.823999 -10.439026,10.799999 -19.007996,1.764c-2.231995,-2.34 -1.656006,-3.888 -1.835999,-8.099998c-0.179993,-4.212002 1.224976,-4.104 1.079956,-8.748001c-0.106995,-4.643999 -1.583984,-9.792 -1.583984,-9.792c0,0 -15.625,0.72 -33.877014,0.576c-18.251953,-0.18 -21.454987,-0.324 -39.491974,-0.684c-18.035004,-0.361 -32.218994,-0.217 -32.218994,-0.217c-36.072021,-0.072001 -18.64801,-0.107 -22.104004,0c-3.529022,0.072 -8.281006,0.54 -11.557007,0.792c-3.23999,0.216 -5.76001,0.72 -7.847992,0.647c-0.289001,0.504 -0.289001,1.656 0,3.528999c0.251984,1.871 1.72699,5.399 1.583984,7.596001c-0.179993,2.16 -1.007996,3.851999 -2.557007,5.255999c0.684021,-1.98 1.008026,-3.599998 0.973022,-4.969c-0.072021,-1.403 -0.828003,-1.331999 -1.296997,-3.202999c-0.432007,-1.944 -0.828003,-4.608 -1.26001,-8.209c-3.096008,-0.035001 -6.553009,-0.252001 -10.511993,-0.575001c-3.924011,-0.36 -7.309021,-1.62 -13.031006,-1.476c-5.725006,0.18 -15.300995,1.979 -20.988007,2.34c-5.652008,0.359 -9.828003,0.252 -12.743988,-0.289c-3.420013,-0.828 -7.596008,-1.295 -12.709015,-1.439c-5.147003,-0.145 -12.600006,0.288 -17.819,0.575999c-5.18399,0.288 -7.164001,0.828 -13.031982,1.152c-5.904022,0.359 -15.804016,0.936001 -21.960022,0.899l0,0c-6.119995,-0.071001 -9.936005,-1.296 -14.651978,-1.188c-4.680023,0.108999 -9.072021,0.684999 -13.356018,1.764999c-0.251984,0.792 -0.68399,1.728001 -1.259979,2.916c-0.576019,1.188 -1.90802,1.944 -2.232025,4.104c-0.287994,2.16 0.540009,7.198999 0.324005,8.747999c-0.216003,1.512001 -0.720001,1.618999 -1.583984,0.286999c0.503998,-2.591999 0.431976,-4.895998 -0.324005,-6.983997c-0.756012,-2.123001 -3.167999,-3.959002 -4.140015,-5.580002c-0.935989,-1.618999 0.287994,-3.095999 -1.583984,-4.066999c-1.872009,-1.007999 -3.960007,-1.547999 -9.540009,-1.764c-5.651993,-0.181 -17.459991,0.396 -23.867996,0.575001c-6.371994,0.217 -8.604004,0.181 -14.220001,0.575999c-5.615997,0.396001 9.539993,1.656001 -19.440002,1.765c-7.811996,0.108 -15.623993,0.252001 -23.436005,0.396c-8.567993,-0.216 -17.135986,-0.468 -25.703995,-0.719999c-5.328003,0.108 -10.656006,0.216 -16.019997,0.359999c-1.872002,1.332001 -3.744003,2.699001 -5.616005,4.068001c0,0 0.072006,-0.613001 -0.107994,0.646999c-0.216003,1.296 -0.720001,4.5 -0.720001,4.5c-1.332001,1.584 -2.664001,3.168001 -3.996002,4.788c0,0 0.612,-1.584 0,-3.671999c-0.612,-2.125 -1.907997,-2.053001 -2.412003,-4.789001c-0.503998,-2.771 0.396004,-6.264 0.396004,-6.264c-8.424004,-0.106998 -16.848,-0.251999 -25.272003,-0.396c-6.264,-0.108 -12.563995,-0.216 -18.863998,-0.359999c-29.34,0.108 41.940002,1.151999 -32.399998,0.288c0.107998,-1.728001 0.216,-3.491001 0.323997,-5.256001c-2.987999,-2.304 -6.227999,-3.384 -9.863998,-3.239l0,0c-3.636,0.18 -7.488001,1.512 -11.772,4.104c-1.473,84.025997 -2.948999,168.050007 -4.425,252.110004c0.144,0.216003 1.296,0.503998 3.492001,0.898987c2.196,0.395996 5.327999,0.864014 9.539999,1.440002c0.612001,0.756012 1.26,1.548004 1.908001,2.339996c3.096001,0.108002 5.58,-0.071991 7.632,-0.575989c2.051998,-0.503998 3.492001,-1.26001 4.464001,-2.339996c-0.18,-2.304016 -0.360001,-4.644012 -0.576,-6.983002c8.135998,0.106995 16.307999,0.216003 24.48,0.359009c12.564003,0.359985 25.127998,0.720001 37.692001,1.115997c10.439995,-0.216003 20.879997,-0.468018 31.32,-0.720001c0,-1.47702 0,-2.951996 0,-4.429001c0.936005,-3.563004 1.871994,-7.128006 2.807999,-10.69101c0.792007,2.087997 1.584,4.175995 2.376007,6.264008c-0.108002,2.699997 -0.252014,5.400009 -0.396011,8.100998c34.164001,-0.181 58.320007,-0.071991 73.835999,0.359009c15.335999,0.432983 11.772003,2.195984 17.928009,2.231995c6.155991,0.03598 13.571991,-1.692017 18.755997,-2.016998c5.184006,-0.359009 7.667999,0.108002 12.095993,0c4.428009,-0.180023 9.144012,-0.432007 14.328003,-0.899017c0,-2.195984 0.216003,-4.031998 0.612,-5.543991c0.432007,-1.513 1.080017,-2.664001 1.90799,-3.492004c-0.612,1.944 -0.719971,3.779999 -0.323975,5.544006c0.467987,1.763992 1.403992,3.383987 2.880005,4.968002c5.975983,0.612 11.627991,1.007996 17.171997,1.152008c5.579987,0.143982 10.763977,0.071991 15.911987,-0.288025c-0.64801,-1.655975 -0.864014,-3.203979 -0.64801,-4.679993c0.252014,-1.47699 1.548004,-2.123993 1.90802,-4.067993l0,0c0.395996,-1.979996 0.503998,-4.464005 0.324005,-7.596008c0,0.611008 0.107971,1.476013 0.323975,2.628006c0.216003,1.115997 0.756012,2.664001 0.972015,4.067001c0.179993,1.440002 -0.324005,2.951996 0.287994,4.393005c0.64801,1.438995 0.791992,3.059998 3.528015,4.104004c2.735992,1.007996 7.991974,1.835999 12.707977,2.016998c4.716003,0.216003 12.167999,0.216003 15.264008,-0.864014c3.096008,-1.079987 1.440002,-5.472 3.20401,-5.543991c1.763977,-0.036011 3.778992,4.391983 7.30899,5.255997c3.527008,0.828003 8.855011,-0.252014 13.679993,-0.287994c4.825012,-0.036011 9.718994,-0.036011 14.938995,0c0.936005,-1.223999 1.764008,-2.59201 2.557007,-4.104004c0.791016,-1.513 1.222992,-5.003998 2.230011,-4.968994c1.01001,0.071991 3.60199,4.067993 3.81601,5.256989c0.21698,1.188019 -3.059021,0.791992 -2.555023,1.764008c0.539001,0.971985 1.332001,3.600006 5.723022,4.104004c4.464996,0.468994 11.231995,0.108002 20.700989,-1.188019c0.790985,-4.104004 1.942993,-6.119995 3.492004,-6.119995c1.546997,0 3.167999,4.968018 5.722992,6.119995c2.484009,1.115997 -1.079987,1.151001 39.277008,1.368011l0,0l36.106995,-0.721008l40.896027,-0.358978l0,0c0,0 -0.686035,-3.779999 -0.396057,-6.265015c0.324036,-2.483002 -1.47699,-5.363007 -0.395996,-5.903c1.117004,-0.539993 3.924011,4.895996 6.40802,3.671997c2.52002,-1.188004 4.823975,-6.623993 4.823975,-6.623993c0,0 2.736023,-2.376007 4.031006,-1.115997c1.296997,1.29599 1.584045,3.312988 1.980042,6.659988c0.432007,3.312012 -1.403992,4.032013 -0.395996,6.623993c1.007996,2.556 4.427979,3.672028 4.427979,3.672028l0,0l40.5,1.475983l16.453003,-0.359009l0,0c41.039001,0.252014 48.526978,-0.64798 48.526978,-0.64798c0,0 2.304993,2.845001 5.400024,3.203979c3.132996,0.324005 7.380981,-0.03598 13.031006,-1.151001c-1.04303,-83.159988 -2.088013,-166.318985 -3.16803,-249.516988c-1.72699,-0.863 -3.167969,-1.547 -4.462952,-2.051c-1.26001,-0.469 -2.305054,-0.756001 -3.16803,-0.865c-0.213989,-1.261001 -0.429016,-2.521 -0.645996,-3.780001l0,0z"/>
    <path fill="none" stroke="#000000" stroke-width="0.036" stroke-miterlimit="10" id="path15" d="m672.578003,8.643c-2.268005,-0.358999 -4.752014,-0.358999 -7.632996,0c-2.916016,0.324 -6.947021,1.188001 -10.475037,2.195001c0,1.224999 0,2.484 0,3.743999l0,0l-19.47699,-0.144l-11.015991,-0.646999l-11.015991,0.323999l-10.117004,0.215l0,0c0,0 1.117004,9.504 1.007996,12.564001c-0.323975,11.700001 -3.526978,-1.764002 -7.703003,10.188c-2.159973,6.191998 -1.47699,8.785 -1.47699,8.785c0,0 -5.328003,-2.341 -7.09198,-6.769001c-9.072021,-22.823999 -10.439026,10.799999 -19.007996,1.764c-2.231995,-2.34 -1.656006,-3.888 -1.835999,-8.099998c-0.179993,-4.212002 1.224976,-4.104 1.079956,-8.748001c-0.106995,-4.643999 -1.583984,-9.792 -1.583984,-9.792c0,0 -15.625,0.72 -33.877014,0.576c-18.251953,-0.18 -21.454987,-0.324 -39.491974,-0.684c-18.035004,-0.361 -32.218994,-0.217 -32.218994,-0.217c-36.072021,-0.072001 -18.64801,-0.107 -22.104004,0c-3.529022,0.072 -8.281006,0.54 -11.557007,0.792c-3.23999,0.216 -5.76001,0.72 -7.847992,0.647c-0.289001,0.504 -0.289001,1.656 0,3.528999c0.251984,1.871 1.72699,5.399 1.583984,7.596001c-0.179993,2.16 -1.007996,3.851999 -2.557007,5.255999c0.684021,-1.98 1.008026,-3.599998 0.973022,-4.969c-0.072021,-1.403 -0.828003,-1.331999 -1.296997,-3.202999c-0.432007,-1.944 -0.828003,-4.608 -1.26001,-8.209c-3.096008,-0.035001 -6.553009,-0.252001 -10.511993,-0.575001c-3.924011,-0.36 -7.309021,-1.62 -13.031006,-1.476c-5.725006,0.18 -15.300995,1.979 -20.988007,2.34c-5.652008,0.359 -9.828003,0.252 -12.743988,-0.289c-3.420013,-0.828 -7.596008,-1.295 -12.709015,-1.439c-5.147003,-0.145 -12.600006,0.288 -17.819,0.575999c-5.18399,0.288 -7.164001,0.828 -13.031982,1.152c-5.904022,0.359 -15.804016,0.936001 -21.960022,0.899l0,0c-6.119995,-0.071001 -9.936005,-1.296 -14.651978,-1.188c-4.680023,0.108999 -9.072021,0.684999 -13.356018,1.764999c-0.251984,0.792 -0.68399,1.728001 -1.259979,2.916c-0.576019,1.188 -1.90802,1.944 -2.232025,4.104c-0.287994,2.16 0.540009,7.198999 0.324005,8.747999c-0.216003,1.512001 -0.720001,1.618999 -1.583984,0.286999c0.503998,-2.591999 0.431976,-4.895998 -0.324005,-6.983997c-0.756012,-2.123001 -3.167999,-3.959002 -4.140015,-5.580002c-0.935989,-1.618999 0.287994,-3.095999 -1.583984,-4.066999c-1.872009,-1.007999 -3.960007,-1.547999 -9.540009,-1.764c-5.651993,-0.181 -17.459991,0.396 -23.867996,0.575001c-6.371994,0.217 -8.604004,0.181 -14.220001,0.575999c-5.615997,0.396001 9.539993,1.656001 -19.440002,1.765c-7.811996,0.108 -15.623993,0.252001 -23.436005,0.396c-8.567993,-0.216 -17.135986,-0.468 -25.703995,-0.719999c-5.328003,0.108 -10.656006,0.216 -16.019997,0.359999c-1.872002,1.332001 -3.744003,2.699001 -5.616005,4.068001c0,0 0.072006,-0.613001 -0.107994,0.646999c-0.216003,1.296 -0.720001,4.5 -0.720001,4.5c-1.332001,1.584 -2.664001,3.168001 -3.996002,4.788c0,0 0.612,-1.584 0,-3.671999c-0.612,-2.125 -1.907997,-2.053001 -2.412003,-4.789001c-0.503998,-2.771 0.396004,-6.264 0.396004,-6.264c-8.424004,-0.106998 -16.848,-0.251999 -25.272003,-0.396c-6.264,-0.108 -12.563995,-0.216 -18.863998,-0.359999c-29.34,0.108 41.940002,1.151999 -32.399998,0.288c0.107998,-1.728001 0.216,-3.491001 0.323997,-5.256001c-2.987999,-2.304 -6.227999,-3.384 -9.863998,-3.239l0,0c-3.636,0.18 -7.488001,1.512 -11.772,4.104c-1.473,84.025997 -2.948999,168.050007 -4.425,252.110004c0.144,0.216003 1.296,0.503998 3.492001,0.898987c2.196,0.395996 5.327999,0.864014 9.539999,1.440002c0.612001,0.756012 1.26,1.548004 1.908001,2.339996c3.096001,0.108002 5.58,-0.071991 7.632,-0.575989c2.051998,-0.503998 3.492001,-1.26001 4.464001,-2.339996c-0.18,-2.304016 -0.360001,-4.644012 -0.576,-6.983002c8.135998,0.106995 16.307999,0.216003 24.48,0.359009c12.564003,0.359985 25.127998,0.720001 37.692001,1.115997c10.439995,-0.216003 20.879997,-0.468018 31.32,-0.720001c0,-1.47702 0,-2.951996 0,-4.429001c0.936005,-3.563004 1.871994,-7.128006 2.807999,-10.69101c0.792007,2.087997 1.584,4.175995 2.376007,6.264008c-0.108002,2.699997 -0.252014,5.400009 -0.396011,8.100998c34.164001,-0.181 58.320007,-0.071991 73.835999,0.359009c15.335999,0.432983 11.772003,2.195984 17.928009,2.231995c6.155991,0.03598 13.571991,-1.692017 18.755997,-2.016998c5.184006,-0.359009 7.667999,0.108002 12.095993,0c4.428009,-0.180023 9.144012,-0.432007 14.328003,-0.899017c0,-2.195984 0.216003,-4.031998 0.612,-5.543991c0.432007,-1.513 1.080017,-2.664001 1.90799,-3.492004c-0.612,1.944 -0.719971,3.779999 -0.323975,5.544006c0.467987,1.763992 1.403992,3.383987 2.880005,4.968002c5.975983,0.612 11.627991,1.007996 17.171997,1.152008c5.579987,0.143982 10.763977,0.071991 15.911987,-0.288025c-0.64801,-1.655975 -0.864014,-3.203979 -0.64801,-4.679993c0.252014,-1.47699 1.548004,-2.123993 1.90802,-4.067993l0,0c0.395996,-1.979996 0.503998,-4.464005 0.324005,-7.596008c0,0.611008 0.107971,1.476013 0.323975,2.628006c0.216003,1.115997 0.756012,2.664001 0.972015,4.067001c0.179993,1.440002 -0.324005,2.951996 0.287994,4.393005c0.64801,1.438995 0.791992,3.059998 3.528015,4.104004c2.735992,1.007996 7.991974,1.835999 12.707977,2.016998c4.716003,0.216003 12.167999,0.216003 15.264008,-0.864014c3.096008,-1.079987 1.440002,-5.472 3.20401,-5.543991c1.763977,-0.036011 3.778992,4.391983 7.30899,5.255997c3.527008,0.828003 8.855011,-0.252014 13.679993,-0.287994c4.825012,-0.036011 9.718994,-0.036011 14.938995,0c0.936005,-1.223999 1.764008,-2.59201 2.557007,-4.104004c0.791016,-1.513 1.222992,-5.003998 2.230011,-4.968994c1.01001,0.071991 3.60199,4.067993 3.81601,5.256989c0.21698,1.188019 -3.059021,0.791992 -2.555023,1.764008c0.539001,0.971985 1.332001,3.600006 5.723022,4.104004c4.464996,0.468994 11.231995,0.108002 20.700989,-1.188019c0.790985,-4.104004 1.942993,-6.119995 3.492004,-6.119995c1.546997,0 3.167999,4.968018 5.722992,6.119995c2.484009,1.115997 -1.079987,1.151001 39.277008,1.368011l0,0l36.106995,-0.721008l40.896027,-0.358978l0,0c0,0 -0.686035,-3.779999 -0.396057,-6.265015c0.324036,-2.483002 -1.47699,-5.363007 -0.395996,-5.903c1.117004,-0.539993 3.924011,4.895996 6.40802,3.671997c2.52002,-1.188004 4.823975,-6.623993 4.823975,-6.623993c0,0 2.736023,-2.376007 4.031006,-1.115997c1.296997,1.29599 1.584045,3.312988 1.980042,6.659988c0.432007,3.312012 -1.403992,4.032013 -0.395996,6.623993c1.007996,2.556 4.427979,3.672028 4.427979,3.672028l0,0l40.5,1.475983l16.453003,-0.359009l0,0c41.039001,0.252014 48.526978,-0.64798 48.526978,-0.64798c0,0 2.304993,2.845001 5.400024,3.203979c3.132996,0.324005 7.380981,-0.03598 13.031006,-1.151001c-1.04303,-83.159988 -2.088013,-166.318985 -3.16803,-249.516988c-1.72699,-0.863 -3.167969,-1.547 -4.462952,-2.051c-1.26001,-0.469 -2.305054,-0.756001 -3.16803,-0.865c-0.213989,-1.261001 -0.429016,-2.521 -0.645996,-3.780001l0,0z"/>
   </g>
   <path fill="url(#svg_2)" fill-rule="evenodd" stroke="#000000" stroke-width="0.036" stroke-miterlimit="10" id="path30" d="m680.570007,15.662c0.072021,32.364001 0.286987,68.327998 0.791016,110.125003c0.395996,41.794998 1.044983,87.046997 1.945007,138.274002l0,0c-3.38501,1.225006 -6.445007,1.90799 -9.324036,1.764984c-2.880981,-0.144989 -5.473022,-0.971985 -7.775024,-2.483978l0,0l-10.261963,-252.50401l0,0c1.33197,1.08 3.38501,2.087999 6.013977,3.025c2.554993,0.863 6.479004,2.158999 9.684021,2.483001c3.057983,0.253 6.083984,0.071999 8.927002,-0.684001l0,0z"/>
   <path fill="#412318" fill-rule="evenodd" stroke="#000000" stroke-width="0.036" stroke-miterlimit="10" id="path32" d="m671.96698,9.471l1.188049,3.564l5.075989,1.907001l0,0c-3.81604,1.009 -7.309021,1.187999 -10.764038,0.54c-3.45697,-0.72 -6.731995,-2.268001 -9.828003,-4.645l0,0c2.736023,-1.295 5.363037,-1.979 7.740051,-2.195c2.44696,-0.288 4.462952,0.037 6.587952,0.829l0,0z"/>
   <path fill="#ffffff" fill-rule="evenodd" stroke="#000000" stroke-width="0.036" stroke-miterlimit="10" id="path43" d="m523.429993,15.123l42.301025,-0.108l0.971008,5.616l0.253967,6.515999l-1.47699,7.416l2.088013,6.984001l4.57196,2.375l3.131042,-2.051003l3.781006,-7.848999l2.481995,-2.195999l2.125,1.116001l1.438965,2.051998l1.801025,3.637001l2.050964,3.635998l4.64502,4.248001l1.621033,1.512001l0.897949,-7.560001l3.240051,-7.236l3.636963,-0.756001l1.007996,-1.295998l0.324036,-7.345001l-0.468994,-4.355l-0.252014,-4.464l9.612976,-0.324l14.939026,-0.252l15.190979,0.684999l11.411987,0.359l11.340027,247.319002l-27.755981,-0.467987l-22.859009,0l-18.468994,0.755981l-28.477051,-0.755981l-11.22998,-2.196014l-0.395996,-6.623993l-0.828003,-7.380005l-1.187988,-2.195007l-5.221008,1.439011l-4.427979,6.659988l-5.61499,-4.787994l-1.980042,2.195999l0.395996,10.690994l0,0c-41.14798,0.972992 -69.265991,1.584015 -86.14798,1.835999c-16.596008,0.181 -9.359009,-0.503998 -13.428009,-0.539978c-4.285004,-0.107025 -8.856995,0.21698 -11.628998,-0.287018c-2.80899,-0.684998 -3.671997,-2.160004 -5.075989,-3.312988c-1.475006,-1.223999 -2.484009,-3.384003 -3.600006,-3.563004c-1.26001,-0.21701 -2.627014,0.972 -3.563995,2.194992c-0.971008,1.152008 -1.619019,2.664001 -2.088013,4.681l0,0c-4.210999,0.359009 -7.667999,0.68399 -10.764008,0.826996c-3.095978,0.072021 -5.579987,0.252014 -7.450989,0c-1.90799,-0.251984 -3.38501,-0.898987 -3.889008,-1.654999c-0.610992,-1.009003 0.180023,-2.520996 0.287018,-3.563995c-0.035004,-1.151993 0.613007,-1.692001 0,-2.735992c-0.718994,-1.151001 -2.985992,-3.312012 -3.886993,-3.563004c-0.936005,-0.251999 -1.008026,0.936005 -1.47702,1.908005c-0.539001,0.827988 -0.863007,1.978989 -1.511993,3.311996c-0.68399,1.259995 -1.618988,2.663986 -2.664001,4.356003l0,0c-3.203003,0.179993 -6.911987,0.179993 -11.125,0.287994c-4.428009,-0.036011 -11.015991,0.610992 -14.325989,0c-3.350006,-0.828003 -3.420013,-2.80899 -5.076019,-3.852997c-1.765991,-1.080002 -3.960999,-2.087997 -5.075989,-1.908005c-1.261017,0.108002 -1.117004,2.089005 -1.800995,3.024002c-0.64801,0.791992 -0.324005,1.835999 -2.088013,2.447998c-1.872009,0.647003 -4.751984,1.29599 -8.639984,1.403015c-3.996002,-0.071014 -11.339996,-0.899017 -14.652008,-1.654999c-3.347992,-0.864014 -3.888,-1.225006 -5.075989,-3.024017c-1.188019,-1.908005 -1.512024,-5.759995 -2.088013,-7.955994c-0.64801,-2.304001 -1.476013,-3.852005 -2.088013,-5.184006l0,0c0.144012,2.591995 0,4.824005 -0.287994,6.839996c-0.395996,1.908005 -1.223999,3.276001 -1.799988,4.932007c-0.684021,1.692001 -1.152008,3.203995 -1.800018,4.932999l0,0c-5.867981,0.287994 -11.195984,0.432007 -16.127991,0.287994c-4.967987,-0.181 -9.395996,-0.505005 -13.428009,-1.115997l0,0c-1.187988,-1.944 -2.123993,-3.671997 -2.664001,-5.472992c-0.64798,-1.800003 -0.899994,-3.491013 -0.899994,-5.220001l0,0c-1.691986,1.547989 -2.735992,3.060989 -3.276001,4.679993c-0.575989,1.62001 -0.575989,3.169006 0,4.933014l0,0c-6.371979,-0.360016 -12.455994,-0.468018 -18.539993,-0.288025c-6.048004,0.180023 -13.104004,0.900024 -17.604004,1.368011c-4.427994,0.468018 -5.687988,1.403015 -8.963989,1.368011c-3.240005,-0.036011 -7.056,-1.188019 -10.440002,-1.619995c-3.348007,-0.468018 -3.852005,-1.008026 -9.540009,-1.116028c-5.687988,-0.071991 3.960007,0.540009 -24.444,0.540009l0,0l-20.051987,-0.359985l-24.084,-0.756012l-1.584015,-7.73999l-3.635986,-7.344009l-1.980003,7.344009l-1.620003,8.496002l-20.879997,1.079987l-3.204002,0l0,0c-28.727997,0 0.612,-0.898987 -68.580002,-1.26001l0,0l-0.899998,-240.695986l23.363998,1.045l38.916004,-0.396l14.039993,0l-0.395996,5.184l2.375999,5.508999l-0.396004,4.788l5.220001,-3.313l2.015999,-5.147999l1.188004,-2.951l5.615997,-3.672001l0,0c25.344002,0.359001 43.739998,0.468 56.015999,0.324001c12.096008,-0.217001 10.548004,-0.864 16.740005,-1.369001c6.192001,-0.574999 13.5,-1.403 20.268005,-1.655c6.659988,-0.323 14.255997,-0.323 19.727997,-0.288c5.291992,-0.072 9.612,-0.575999 12.528,0c2.807999,0.504001 3.563995,1.512 4.787994,3.023c1.152008,1.332001 1.439987,3.529001 2.375992,5.473001c0.828003,1.907999 2.052002,4.283998 2.700012,6.299999c0.503998,2.017 0.432007,4.681002 0.899994,5.509001c0.503998,0.646999 1.656006,0 2.088013,-1.368999c0.179993,-1.547001 -0.287994,-5.039001 0,-7.127001c0.251984,-2.088001 0.899994,-3.601 1.799988,-5.221001c0.828003,-1.799999 1.044006,-3.672001 3.563995,-4.645c2.339996,-0.935999 6.119995,-1.26 11.339996,-1.115c5.184021,-0.035999 11.664001,1.26 20.016022,1.115c8.423981,-0.251999 20.59198,-2.231 29.699982,-2.483c8.856018,-0.323 15.876007,0.181001 23.57901,0.54c7.73999,0.252001 15.300995,1.368001 22.105011,1.116c6.550995,-0.396 12.886993,-2.845 17.603973,-3.024c4.607025,-0.287 6.516022,1.512 10.439026,1.908c3.923981,0.359 8.063995,0.54 12.85199,0.54l0,0c0.686005,3.349001 1.332001,5.868 1.800995,7.956001c0.432007,1.942999 0.863007,2.627998 0.899994,4.140999c-0.106995,1.512001 -0.468994,2.916 -1.224976,4.643999l0,0c2.556976,-1.331999 4.103973,-2.664 4.788971,-4.391998c0.611023,-1.765001 -0.612976,-3.637001 -0.899994,-5.761c-0.360992,-2.124001 -0.755981,-4.356001 -1.187988,-6.840001l0,0c4.535004,-0.612 9.070007,-0.936999 14.039001,-1.116c4.895996,-0.252 0.251984,-0.072 15.229004,0c15.122986,0.070001 39.313995,0.177 74.126984,0.466001l0,0z"/>
   <path fill="url(#svg_1)" fill-rule="evenodd" stroke="#000000" stroke-width="0.036" stroke-miterlimit="10" id="path54" d="m33.217999,12.207c0.072002,69.659997 0.18,124.343995 0.324001,166.966996c0.216,42.408005 0.360001,70.416 0.576,85.82399l0,0c-2.664,-1.763977 -5.256001,-2.951996 -8.063999,-3.563995c-2.700001,-0.720001 -5.436001,-0.539978 -8.352001,-0.286987c-2.844,0.143982 -5.832,0.826996 -8.964,1.654999l0,0l4.5,-249.767002l0,0c3.276,-1.693 6.012,-2.881 8.352,-3.564c2.34,-0.756 3.816,-1.045 5.688,-0.575999c1.944,0.502999 3.924,1.476 5.939999,3.311999l0,0z"/>
   <path fill="#412318" fill-rule="evenodd" stroke="#000000" stroke-width="0.036" stroke-miterlimit="10" id="path56" d="m34.73,264.709991c-2.736,-1.656006 -5.868,-2.699982 -9.251999,-3.276001c-3.384001,-0.610992 -8.172001,-0.755981 -11.052001,-0.286987c-2.735999,0.322998 -4.679999,1.187988 -5.688,2.446991l0,0c1.512,0.540009 3.312,1.007996 5.400001,1.403992c2.195999,0.288025 4.68,0.684021 7.452,0.792023l0,0l3.563999,2.195984l0,0c2.196001,0.322998 4.140001,0.287994 5.688,-0.251984c1.692001,-0.540009 2.844002,-1.546997 3.888,-3.024017l0,0z"/>
   <path fill-rule="evenodd" stroke="#000000" stroke-width="0.036" stroke-miterlimit="10" id="path58" d="m672.578003,8.643c-2.268005,-0.358999 -4.752014,-0.358999 -7.632996,0c-2.916016,0.324 -6.947021,1.188001 -10.475037,2.195001c0,1.224999 0,2.484 0,3.743999l0,0l-19.47699,-0.144l-11.015991,-0.646999l-11.015991,0.323999l-10.117004,0.215l0,0c0,0 1.117004,9.504 1.007996,12.564001c-0.323975,11.700001 -3.526978,-1.764002 -7.703003,10.188c-2.159973,6.191998 -1.47699,8.785 -1.47699,8.785c0,0 -5.328003,-2.341 -7.09198,-6.769001c-9.072021,-22.823999 -10.439026,10.799999 -19.007996,1.764c-2.231995,-2.34 -1.656006,-3.888 -1.835999,-8.099998c-0.179993,-4.212002 1.224976,-4.104 1.079956,-8.748001c-0.106995,-4.643999 -1.583984,-9.792 -1.583984,-9.792c0,0 -15.625,0.72 -33.877014,0.576c-18.251953,-0.18 -21.454987,-0.324 -39.491974,-0.684c-18.035004,-0.361 -32.218994,-0.217 -32.218994,-0.217c-36.072021,-0.072001 -18.64801,-0.107 -22.104004,0c-3.529022,0.072 -8.281006,0.54 -11.557007,0.792c-3.23999,0.216 -5.76001,0.72 -7.847992,0.647c-0.289001,0.504 -0.289001,1.656 0,3.528999c0.251984,1.871 1.72699,5.399 1.583984,7.596001c-0.179993,2.16 -1.007996,3.851999 -2.557007,5.255999c0.684021,-1.98 1.008026,-3.599998 0.973022,-4.969c-0.072021,-1.403 -0.828003,-1.331999 -1.296997,-3.202999c-0.432007,-1.944 -0.828003,-4.608 -1.26001,-8.209c-3.096008,-0.035001 -6.553009,-0.252001 -10.511993,-0.575001c-3.924011,-0.36 -7.309021,-1.62 -13.031006,-1.476c-5.725006,0.18 -15.300995,1.979 -20.988007,2.34c-5.652008,0.359 -9.828003,0.252 -12.743988,-0.289c-3.420013,-0.828 -7.596008,-1.295 -12.709015,-1.439c-5.147003,-0.145 -12.600006,0.288 -17.819,0.575999c-5.18399,0.288 -7.164001,0.828 -13.031982,1.152c-5.904022,0.359 -15.804016,0.936001 -21.960022,0.899l0,0c-6.119995,-0.071001 -9.936005,-1.296 -14.651978,-1.188c-4.680023,0.108999 -9.072021,0.684999 -13.356018,1.764999c-0.251984,0.792 -0.68399,1.728001 -1.259979,2.916c-0.576019,1.188 -1.90802,1.944 -2.232025,4.104c-0.287994,2.16 0.540009,7.198999 0.324005,8.747999c-0.216003,1.512001 -0.720001,1.618999 -1.583984,0.286999c0.503998,-2.591999 0.431976,-4.895998 -0.324005,-6.983997c-0.756012,-2.123001 -3.167999,-3.959002 -4.140015,-5.580002c-0.935989,-1.618999 0.287994,-3.095999 -1.583984,-4.066999c-1.872009,-1.007999 -3.960007,-1.547999 -9.540009,-1.764c-5.651993,-0.181 -17.459991,0.396 -23.867996,0.575001c-6.371994,0.217 -8.604004,0.181 -14.220001,0.575999c-5.615997,0.396001 9.539993,1.656001 -19.440002,1.765c-7.811996,0.108 -15.623993,0.252001 -23.436005,0.396c-8.567993,-0.216 -17.135986,-0.468 -25.703995,-0.719999c-5.328003,0.108 -10.656006,0.216 -16.019997,0.359999c-1.872002,1.332001 -3.744003,2.699001 -5.616005,4.068001c0,0 0.072006,-0.613001 -0.107994,0.646999c-0.216003,1.296 -0.720001,4.5 -0.720001,4.5c-1.332001,1.584 -2.664001,3.168001 -3.996002,4.788c0,0 0.612,-1.584 0,-3.671999c-0.612,-2.125 -1.907997,-2.053001 -2.412003,-4.789001c-0.503998,-2.771 0.396004,-6.264 0.396004,-6.264c-8.424004,-0.106998 -16.848,-0.251999 -25.272003,-0.396c-6.264,-0.108 -12.563995,-0.216 -18.863998,-0.359999c-29.34,0.108 41.940002,1.151999 -32.399998,0.288c0.107998,-1.728001 0.216,-3.491001 0.323997,-5.256001c-2.987999,-2.304 -6.227999,-3.384 -9.863998,-3.239l0,0c-3.636,0.18 -7.488001,1.512 -11.772,4.104c-1.473,84.025997 -2.948999,168.050007 -4.425,252.110004c0.144,0.216003 1.296,0.503998 3.492001,0.898987c2.196,0.395996 5.327999,0.864014 9.539999,1.440002c0.612001,0.756012 1.26,1.548004 1.908001,2.339996c3.096001,0.108002 5.58,-0.071991 7.632,-0.575989c2.051998,-0.503998 3.492001,-1.26001 4.464001,-2.339996c-0.18,-2.304016 -0.360001,-4.644012 -0.576,-6.983002c8.135998,0.106995 16.307999,0.216003 24.48,0.359009c12.564003,0.359985 25.127998,0.720001 37.692001,1.115997c10.439995,-0.216003 20.879997,-0.468018 31.32,-0.720001c0,-1.47702 0,-2.951996 0,-4.429001c0.936005,-3.563004 1.871994,-7.128006 2.807999,-10.69101c0.792007,2.087997 1.584,4.175995 2.376007,6.264008c-0.108002,2.699997 -0.252014,5.400009 -0.396011,8.100998c34.164001,-0.181 58.320007,-0.071991 73.835999,0.359009c15.335999,0.432983 11.772003,2.195984 17.928009,2.231995c6.155991,0.03598 13.571991,-1.692017 18.755997,-2.016998c5.184006,-0.359009 7.667999,0.108002 12.095993,0c4.428009,-0.180023 9.144012,-0.432007 14.328003,-0.899017c0,-2.195984 0.216003,-4.031998 0.612,-5.543991c0.432007,-1.513 1.080017,-2.664001 1.90799,-3.492004c-0.612,1.944 -0.719971,3.779999 -0.323975,5.544006c0.467987,1.763992 1.403992,3.383987 2.880005,4.968002c5.975983,0.612 11.627991,1.007996 17.171997,1.152008c5.579987,0.143982 10.763977,0.071991 15.911987,-0.288025c-0.64801,-1.655975 -0.864014,-3.203979 -0.64801,-4.679993c0.252014,-1.47699 1.548004,-2.123993 1.90802,-4.067993l0,0c0.395996,-1.979996 0.503998,-4.464005 0.324005,-7.596008c0,0.611008 0.107971,1.476013 0.323975,2.628006c0.216003,1.115997 0.756012,2.664001 0.972015,4.067001c0.179993,1.440002 -0.324005,2.951996 0.287994,4.393005c0.64801,1.438995 0.791992,3.059998 3.528015,4.104004c2.735992,1.007996 7.991974,1.835999 12.707977,2.016998c4.716003,0.216003 12.167999,0.216003 15.264008,-0.864014c3.096008,-1.079987 1.440002,-5.472 3.20401,-5.543991c1.763977,-0.036011 3.778992,4.391983 7.30899,5.255997c3.527008,0.828003 8.855011,-0.252014 13.679993,-0.287994c4.825012,-0.036011 9.718994,-0.036011 14.938995,0c0.936005,-1.223999 1.764008,-2.59201 2.557007,-4.104004c0.791016,-1.513 1.222992,-5.003998 2.230011,-4.968994c1.01001,0.071991 3.60199,4.067993 3.81601,5.256989c0.21698,1.188019 -3.059021,0.791992 -2.555023,1.764008c0.539001,0.971985 1.332001,3.600006 5.723022,4.104004c4.464996,0.468994 11.231995,0.108002 20.700989,-1.188019c0.790985,-4.104004 1.942993,-6.119995 3.492004,-6.119995c1.546997,0 3.167999,4.968018 5.722992,6.119995c2.484009,1.115997 -1.079987,1.151001 39.277008,1.368011l0,0l36.106995,-0.721008l40.896027,-0.358978l0,0c0,0 -0.686035,-3.779999 -0.396057,-6.265015c0.324036,-2.483002 -1.47699,-5.363007 -0.395996,-5.903c1.117004,-0.539993 3.924011,4.895996 6.40802,3.671997c2.52002,-1.188004 4.823975,-6.623993 4.823975,-6.623993c0,0 2.736023,-2.376007 4.031006,-1.115997c1.296997,1.29599 1.584045,3.312988 1.980042,6.659988c0.432007,3.312012 -1.403992,4.032013 -0.395996,6.623993c1.007996,2.556 4.427979,3.672028 4.427979,3.672028l0,0l40.5,1.475983l16.453003,-0.359009l0,0c41.039001,0.252014 48.526978,-0.64798 48.526978,-0.64798c0,0 2.304993,2.845001 5.400024,3.203979c3.132996,0.324005 7.380981,-0.03598 13.031006,-1.151001c-1.04303,-83.159988 -2.088013,-166.318985 -3.16803,-249.516988c-1.72699,-0.863 -3.167969,-1.547 -4.462952,-2.051c-1.26001,-0.469 -2.305054,-0.756001 -3.16803,-0.865c-0.213989,-1.261001 -0.429016,-2.521 -0.645996,-3.780001l0,0zm7.02002,7.271c-3.240051,0.648001 -6.335999,0.828001 -9.539001,0.612c-3.240051,-0.251999 -7.309021,-1.223999 -9.57605,-2.051999c-2.231995,-0.828 -3.45697,-1.801 -3.815979,-2.916c0.179993,7.416001 0.684021,21.096 1.619019,41.760001c0.899963,20.770996 2.304993,46.367996 3.815979,81.504005c1.47699,35.278992 3.16803,77.18399 5.075989,127.978989c2.05304,1.115997 4.320007,1.692017 6.984009,1.729004c2.699036,0.071014 5.61499,-0.395996 8.92804,-1.440002c-1.152039,-82.367996 -2.305054,-164.771996 -3.492004,-247.175997l0,0zm-14.364014,245.303988c-113.903992,-0.575989 -73.439026,0.756012 -90.684021,0c0,0 -9.323975,0.216003 -13.247986,-1.079987c-3.888977,-1.29599 -1.512024,-0.647003 -2.411987,-4.066986c-0.900024,-3.420013 -0.072021,-6.084015 -1.189026,-9.576019c-1.11499,-3.491989 -3.203003,-4.427994 -3.203003,-4.427994c0,0 -4.932007,1.475998 -7.235962,3.707993c-2.30304,2.195007 -2.016052,5.147003 -2.016052,5.147003c0,0 -4.679993,-5.436005 -6.804993,-4.787994c-2.087952,0.647995 -1.11499,3.959991 -1.618958,7.380005c-0.468994,3.384979 -0.395996,6.264984 -0.395996,6.264984c-17.244019,-0.755981 -46.90802,0 -46.90802,0c-12.707001,0.216003 -25.416016,0.468018 -38.123016,0.720001c-39.996002,-0.179993 -22.895996,1.080017 -25.73999,-0.03598c-2.881012,-1.152008 -5.110992,-5.688019 -6.984009,-6.731018c-1.871002,-1.008987 -3.02298,-0.575989 -4.140991,0.575012c-1.11499,1.187988 -1.942993,3.312988 -2.554993,6.444c-4.537018,0.395996 -8.389008,0.575989 -11.770996,0.575989c-3.350006,0 -6.697021,-0.036011 -8.244019,-0.575989c-1.548981,-0.540009 -1.079987,-1.90802 -0.972992,-2.628021c0.106995,-0.719971 1.800995,-0.755981 1.584015,-1.763977c-0.21701,-1.009003 -1.729004,-3.240005 -2.844025,-4.356003c-1.151978,-1.152008 -2.735992,-2.736008 -3.815979,-2.340012c-1.080017,0.396011 -1.764008,3.02301 -2.557007,4.644012c-0.828003,1.619995 -1.546997,3.276001 -2.230011,4.968994c-6.083984,-0.181 -11.196991,-0.287994 -15.589996,-0.287994c-4.390991,0 -7.811005,0.828003 -10.511993,0.287994c-2.627014,-0.540009 -3.778992,-2.411987 -5.39801,-3.492004c-1.583984,-1.080002 -2.988007,-2.80899 -4.140991,-2.916l0,0c-1.115997,-0.108002 -1.90799,1.26001 -2.519989,2.339996c-0.64801,1.080002 1.11499,3.203995 -1.297028,4.068008c-2.411987,0.898987 -8.891998,1.332001 -13.031982,1.187988c-4.140015,-0.179993 -8.820007,-1.115997 -11.519989,-2.052002c-2.700012,-0.936981 -3.564026,-1.367981 -4.46402,-3.491989c-0.899994,-2.160004 -0.216003,-6.983994 -0.971985,-9.360001c-0.720001,-2.339996 -1.872009,-3.888 -3.492004,-4.679993c0.540009,3.060989 0.64801,5.651993 0.324005,7.884003c-0.324005,2.268997 -1.619995,3.743988 -2.231995,5.543991c-0.576019,1.836014 -1.008026,3.564011 -1.26001,5.292007c-0.64801,0.03598 -3.276001,0.03598 -7.955994,0c-4.716003,-0.071014 -11.268005,-0.144012 -20.052002,-0.322998c-1.440002,-1.513 -2.484009,-3.240021 -3.167999,-5.257004c-0.684021,-2.016006 -1.007996,-4.212006 -0.972015,-6.695007c-1.332001,1.080002 -2.376007,2.412003 -3.167999,4.067001c-0.791992,1.692001 -1.332001,3.600998 -1.583984,5.868011c-12.024017,-0.072021 -21.600006,0.108002 -29.268005,0.575989c-7.632004,0.432007 -9.180008,1.980011 -14.796005,1.944c-5.580002,-0.071991 6.048004,-1.548004 -25.272003,-2.053009c-7.164001,-0.286987 -14.328003,-0.574982 -21.492004,-0.898987c-9.467987,0 -18.972,0 -28.475998,0c-4.283997,-0.108002 -8.567993,-0.252014 -12.85199,-0.395996c-0.504013,-2.556 -1.044006,-5.147003 -1.584,-7.739014c-1.476013,-2.304993 -2.952011,-4.644989 -4.428009,-6.983994c0,0 -2.087997,4.5 -3.203995,8.100006c-1.116005,3.600998 -1.188004,7.020981 -1.188004,7.020981c-7.487999,0.468018 -14.975998,0.972015 -22.463997,1.476013c-31.788002,-0.503998 14.652,-1.438995 -68.364002,-1.332001l0,0c-0.396,-79.559998 -0.827999,-159.118996 -1.259998,-238.716c15.551998,0.433001 31.139999,0.865 46.727997,1.297001c9.360001,-0.217001 18.720001,-0.469 28.116005,-0.721001c0,0 -1.116005,3.385 -0.828003,5.904001c0.323997,2.483999 1.512001,1.259998 2.015999,4.032c0.503998,2.771999 -0.900002,3.959999 0,7.021c0.900002,3.022999 3.599998,5.146999 3.599998,5.146999c0,0 -1.584,-4.607998 -0.395996,-7.380001c1.223999,-2.770998 3.599998,-1.115997 5.220001,-3.671999c1.619995,-2.591999 -0.792,-4.140999 1.187996,-6.625c2.015999,-2.483 6.840004,-3.310999 6.840004,-3.310999c10.835991,0 21.672005,0 32.508003,0c10.511993,0.106998 19.871994,-0.037001 28.511993,-0.505001c8.675995,-0.504 16.811996,-1.836 22.895996,-2.34c6.084,-0.504 7.020004,-0.504 13.284012,-0.576c6.335999,-0.108 19.079987,-0.396 24.191986,0c5.076004,0.396 4.824005,1.476 6.048004,2.341002c1.223999,0.827 0.360001,0.935999 1.26001,2.626999c0.935989,1.656 3.348007,4.823999 4.139999,7.309c0.791992,2.447001 -0.144012,5.832001 0.64798,7.271c0.828003,1.439999 3.420013,2.16 4.140015,1.188c0.68399,-1.008999 -0.216003,-4.571999 0,-7.021c0.216003,-2.446999 0.467987,-5.615 1.26001,-7.595999c0.791992,-1.943001 1.944,-3.275002 3.492004,-4.104c4.751984,-0.864 8.819977,-1.332001 12.419983,-1.440001c3.563995,-0.108 3.492004,0.756001 8.891998,0.864c5.507996,0.107 15.696014,0.143999 23.544006,-0.288c7.884003,-0.433001 17.424011,-2.052 23.220001,-2.341001l0,0c5.76001,-0.287 6.515991,0.145 11.160004,0.576c4.644989,0.469001 10.97998,1.835999 16.52298,2.053c5.580017,0.216 11.197021,-0.323999 16.561005,-0.864c5.328003,-0.540001 11.447021,-2.231 15.264008,-2.34c3.778992,-0.108 4.175995,1.26 7.30899,1.764c3.167999,0.468 6.912018,0.864 11.447021,1.152c1.655975,3.132 2.59198,6.119999 2.880981,9.070999c0.252014,2.916 -0.144989,5.725002 -1.296997,8.461002c2.953003,-2.881001 4.932007,-5.185001 6.049011,-7.021002c1.11499,-1.799999 0.899994,-1.979 0.64798,-3.780001c-0.251984,-1.835999 -1.009979,-4.139999 -2.231995,-7.019999c0.971008,-0.504002 3.492004,-0.864 7.631012,-1.152c4.140991,-0.324 -3.527008,-0.900001 34.164001,-0.900001l0,0l27.071991,-0.106999l39.996002,0.792l18.684021,-0.323l16.88501,-0.252l0,0c0,0 1.042969,5.075 1.007996,10.151c-0.072021,5.039999 -1.69104,5.650999 -1.225037,10.115999c0.434021,4.428001 0.252014,5.615002 3.061035,7.632c12.778992,9.070999 8.278992,-24.624001 19.763977,-2.124001c2.700989,5.292 8.676025,9.107002 8.676025,9.107002c0,0 -0.719055,-4.428001 1.224976,-11.123001c3.348022,-11.34 7.848022,-1.007999 7.380981,-12.205c-0.144958,-2.987 -1.151978,-11.195001 -1.151978,-11.195001c0,0 5.687988,-0.287999 18.611023,-0.792c12.92395,-0.467999 31.968994,1.224 31.968994,1.224c3.559998,81.647001 7.161987,163.293997 10.760986,244.977987l0,0zm6.083984,-251.135987c0.395996,1.26 0.828003,2.521 1.26001,3.816c1.47699,0.359 2.950989,0.756001 4.465027,1.152c-3.420044,0.179999 -6.55304,0 -9.541016,-0.576c-2.988037,-0.611 -5.687988,-1.549 -8.278992,-2.916c2.664001,-0.936 4.96698,-1.512 6.983948,-1.764c2.051025,-0.250999 3.707031,-0.144 5.111023,0.288l0,0zm-661.787993,253.583985c1.764,-0.827972 3.96,-1.29599 6.660001,-1.439972c2.736,-0.180023 6.66,0.071991 9.576,0.575989c2.879999,0.468994 5.363998,1.26001 7.631998,2.339996c-1.295998,0.899994 -2.664,1.513 -4.139999,1.729004c-1.511999,0.251984 -3.059999,0.144012 -4.788,-0.287994c-1.043999,-0.684021 -2.087999,-1.368011 -3.167999,-2.052002c-3.924,-0.289001 -7.848,-0.576996 -11.772,-0.865021l0,0zm23.867999,-0.863983c-0.431999,-24.012009 -0.756001,-56.160004 -0.972,-98.171997c-0.216,-42.155006 -0.323997,-92.015007 -0.323997,-152.208005c-0.756001,-1.907 -2.628,-2.771 -5.724001,-2.627c-3.096001,0.144 -7.271999,1.295 -12.708,3.492c-1.368,82.655002 -2.736,165.347003 -4.14,248.038989c4.176001,-0.936981 7.811999,-1.403992 11.124,-1.440002c3.312,-0.070984 6.444,0.64801 8.604,1.152008c2.124001,0.503998 3.492001,1.080017 4.139999,1.764008l0,0z"/>
  </g>
 </g>
</svg>